<svg width="100" height="100" viewBox="0 0 100 100" fill="none" xmlns="http://www.w3.org/2000/svg">
<path d="M63.8835 36.1166C67.4929 36.0083 70.9182 34.4983 73.433 31.9069C75.9478 29.3155 77.3544 25.8464 77.3544 22.2354C77.3544 18.6243 75.9478 15.1553 73.433 12.5638C70.9182 9.97242 67.4929 8.46245 63.8835 8.35413H36.1168C32.5074 8.46245 29.0821 9.97242 26.5673 12.5638C24.0524 15.1553 22.6459 18.6243 22.6459 22.2354C22.6459 25.8464 24.0524 29.3155 26.5673 31.9069C29.0821 34.4983 32.5074 36.0083 36.1168 36.1166C32.4758 36.1797 29.0053 37.6704 26.4527 40.2675C23.9002 42.8647 22.4698 46.3605 22.4698 50.002C22.4698 53.6436 23.9002 57.1394 26.4527 59.7366C29.0053 62.3337 32.4758 63.8244 36.1168 63.8875C32.4936 63.9762 29.0487 65.4779 26.5175 68.0719C23.9863 70.6658 22.5695 74.1465 22.5695 77.7708C22.5695 81.3951 23.9863 84.8758 26.5175 87.4697C29.0487 90.0637 32.4936 91.5654 36.1168 91.6541C39.7989 91.6519 43.3296 90.1879 45.9328 87.5839C48.5361 84.9798 49.999 81.4488 50.0001 77.7666V36.1166H63.8835Z" fill="white" fill-opacity="0.5"/>
<path d="M63.8833 63.8832C71.5509 63.8832 77.7667 57.6675 77.7667 49.9999C77.7667 42.3324 71.5509 36.1166 63.8833 36.1166C56.2158 36.1166 50 42.3324 50 49.9999C50 57.6675 56.2158 63.8832 63.8833 63.8832Z" fill="white" fill-opacity="0.5"/>
</svg>
