<svg width="100" height="100" viewBox="0 0 100 100" fill="none" xmlns="http://www.w3.org/2000/svg">
<path d="M14.1797 9.375L20.625 82.2852L50 90.625L79.2579 82.2852L85.8301 9.375H14.1797ZM72.2852 26.6699L71.8165 31.2793L71.6504 33.1836H37.334L38.1348 42.3828H70.8594L70.5372 44.7559L68.4668 68.4082L68.3008 69.9902L50.0391 75.0293V75.0586H49.9219L49.8926 75.0684V75.0586H49.8829L31.4649 69.9805L30.3516 55.8594H39.2481L39.8829 63.0078L49.8829 65.7129H49.9219L59.8829 63.0176L60.9961 51.4355H49.8926V51.4258H29.8829L27.6563 26.6699L27.4903 24.2969H72.4414L72.2852 26.6699V26.6699Z" fill="white" fill-opacity="0.5"/>
</svg>
