<svg width="102" height="100" viewBox="0 0 102 100" fill="none" xmlns="http://www.w3.org/2000/svg">
<path d="M48.1624 69.2064C48.1155 69.3001 48.0686 69.3751 48.1624 69.2064V69.2064ZM87.0874 55.6126C83.9436 55.6126 80.8436 56.3314 78.0249 57.722C77.103 55.8626 76.1499 54.2376 75.9936 53.0189C75.8061 51.597 75.603 50.7532 75.8218 49.0657C76.0405 47.3782 77.0249 44.9876 77.0093 44.8157C76.9936 44.6439 76.7905 43.7845 74.7749 43.7689C72.7593 43.7532 71.0249 44.1595 70.8218 44.6907C70.4651 45.6614 70.1881 46.6595 69.9936 47.6751C69.6343 49.5032 65.9655 56.0345 63.8874 59.4407C63.1999 58.1126 62.6218 56.9407 62.4968 56.0032C62.3093 54.5814 62.1061 53.7376 62.3249 52.0501C62.5436 50.3626 63.528 47.972 63.5124 47.8001C63.4968 47.6282 63.2936 46.7689 61.2811 46.7532C59.2686 46.7376 57.5311 47.1439 57.328 47.6751C57.1249 48.2064 56.9061 49.4564 56.4999 50.6595C56.0936 51.8626 51.203 62.7376 49.9249 65.5657C49.2686 67.0032 48.7061 68.1595 48.2999 68.9407C48.2374 69.0657 48.1905 69.1439 48.1593 69.2064C48.2061 69.1282 48.2374 69.0501 48.2374 69.0814C47.8936 69.7532 47.6905 70.1282 47.6905 70.1282V70.1439C47.4249 70.6439 47.128 71.097 46.9874 71.097C46.8936 71.097 46.6905 69.7845 47.0343 67.9876C47.7686 64.2064 49.503 58.3314 49.4874 58.1282C49.4718 58.0189 49.8155 57.0032 48.3468 56.4564C46.9249 55.9407 46.4093 56.8001 46.2843 56.8001C46.1593 56.8001 46.0655 57.1126 46.0655 57.1126C46.0655 57.1126 47.6436 50.4876 43.0343 50.4876C40.1593 50.4876 36.1593 53.6439 34.1936 56.5032C32.9593 57.1751 30.2874 58.6282 27.4749 60.1751L24.2405 61.9564C24.1624 61.8782 24.0999 61.8001 24.0218 61.722C18.428 55.7532 8.103 51.5345 8.5405 43.5189C8.69675 40.597 9.71238 32.9251 28.3968 23.6126C43.7093 15.9876 55.9499 18.0814 58.0593 22.7376C61.0905 29.3782 51.5124 41.7376 35.6124 43.5189C29.5499 44.1907 26.3655 41.847 25.5686 40.972C24.7405 40.0501 24.6155 40.0032 24.303 40.1751C23.7874 40.4564 24.1155 41.2689 24.303 41.7532C24.7718 42.9876 26.7249 45.1751 30.053 46.2689C32.9749 47.222 40.0811 47.7532 48.6718 44.4251C58.3249 40.7064 65.8405 30.347 63.6343 21.6751C61.3905 12.8626 46.778 9.97197 32.9624 14.8782C24.728 17.8001 15.8249 22.3939 9.42175 28.3782C1.81238 35.5032 0.596754 41.7064 1.09675 44.3001C2.878 53.5032 15.5624 59.5032 20.6374 63.9407L19.9343 64.3314C17.3874 65.597 7.71863 70.6595 5.29675 76.0032C2.56238 82.0657 5.74988 86.4095 7.8405 87.0032C14.3718 88.8157 21.0561 85.5501 24.6499 80.1907C28.2436 74.8314 27.8061 67.8314 26.1499 64.6439C26.1343 64.597 26.103 64.5657 26.0874 64.5189C27.9623 63.4083 29.8531 62.3249 31.7593 61.2689C31.1343 62.9564 30.6811 64.9876 30.4468 67.9251C30.1655 71.3626 31.5874 75.8157 33.4311 77.5657C34.2436 78.3314 35.2249 78.347 35.8374 78.347C37.9936 78.347 38.9624 76.5657 40.0405 74.4407C41.3686 71.847 42.5405 68.8314 42.5405 68.8314C42.5405 68.8314 41.0718 76.9876 45.0874 76.9876C46.5561 76.9876 48.0249 75.097 48.6811 74.1282V74.1439C48.6811 74.1439 48.7124 74.0814 48.7905 73.9564C48.9468 73.722 49.0249 73.5814 49.0249 73.5814V73.5345C49.6186 72.5189 50.9155 70.1907 52.8686 66.347C55.3999 61.3782 57.8186 55.1751 57.8186 55.1751C58.053 56.5376 58.378 57.8845 58.7874 59.2064C59.2249 60.6907 60.1468 62.3157 60.8811 63.8939C60.2874 64.7064 59.928 65.1751 59.928 65.1751C59.928 65.1876 59.9343 65.197 59.9436 65.2064C59.4749 65.8314 58.9436 66.5032 58.3968 67.1595C56.3999 69.5345 54.0218 72.2532 53.7093 73.0345C53.3343 73.9564 53.428 74.6439 54.1468 75.1751C54.678 75.5814 55.6155 75.6439 56.5999 75.5657C58.3968 75.4407 59.6624 75.0032 60.2718 74.722C61.3957 74.3193 62.458 73.7618 63.428 73.0657C65.3811 71.6282 66.5686 69.5657 66.4593 66.847C66.3968 65.347 65.9124 63.847 65.3186 62.4407C65.4905 62.1907 65.678 61.9251 65.8499 61.6595C67.8832 58.6256 69.7153 55.4615 71.3343 52.1876C71.5686 53.5501 71.8905 54.897 72.303 56.2189C72.678 57.4845 73.4124 58.8751 74.0843 60.2345C71.178 62.5939 69.3811 65.3282 68.7593 67.1251C67.603 70.4532 68.5093 71.9532 70.2124 72.297C70.978 72.4532 72.0718 72.0939 72.8843 71.7501C74.0905 71.347 75.228 70.7626 76.2561 70.0157C78.2093 68.5782 80.0999 66.5626 79.9718 63.8282C79.9249 62.5939 79.5811 61.3595 79.128 60.172C81.5811 59.1407 84.7686 58.5782 88.8311 59.047C97.5311 60.0626 99.2343 65.5001 98.9061 67.7657C98.578 70.0314 96.7499 71.297 96.1405 71.672C95.5311 72.047 95.3436 72.1876 95.3905 72.4689C95.4686 72.8751 95.7499 72.8595 96.2655 72.7657C96.9843 72.6407 100.828 70.922 101 66.7189C101.25 61.4064 96.1405 55.5626 87.0936 55.6095L87.0874 55.6126ZM20.028 78.222C17.153 81.3626 13.1249 82.5501 11.3905 81.5501C9.53113 80.4689 10.2655 75.847 13.8093 72.5001C15.9655 70.4689 18.7468 68.5939 20.5905 67.4376C21.0124 67.1876 21.6218 66.8126 22.3718 66.3595C22.4327 66.3204 22.4953 66.2839 22.5593 66.2501C22.6999 66.1564 22.8561 66.0782 23.0124 65.9845C24.3061 70.7345 23.0593 74.922 20.028 78.2189V78.222ZM41.0218 63.9407C40.0218 66.3939 37.9155 72.6439 36.6311 72.3157C35.5374 72.0345 34.8655 67.2689 36.4124 62.5814C37.1936 60.222 38.8499 57.4095 39.8343 56.3157C41.4124 54.5501 43.1468 53.9876 43.553 54.6907C44.0999 55.6126 41.6468 62.4095 41.0218 63.9407ZM58.3655 72.222C57.9436 72.4407 57.553 72.5814 57.3655 72.472C57.2249 72.3939 57.5374 72.097 57.5374 72.097C57.5374 72.097 59.7093 69.7689 60.5686 68.7064C61.0686 68.0814 61.6468 67.347 62.2718 66.5345C62.2718 66.6126 62.2874 66.6907 62.2874 66.7845C62.2686 69.5814 59.5811 71.472 58.3624 72.222H58.3655ZM71.7405 69.1751C71.428 68.9564 71.4749 68.222 72.5218 65.9407C72.928 65.0501 73.8655 63.5501 75.4905 62.1126C75.6749 62.6564 75.7749 63.2251 75.7874 63.8001C75.7718 67.3157 73.2561 68.6282 71.7405 69.1751V69.1751Z" fill="white" fill-opacity="0.5"/>
</svg>
